HIERARCHY
ROOT Hips
{
	OFFSET -0.001795 -0.223333 0.028219
	CHANNELS 6 Xposition Yposition Zposition Zrotation Yrotation Xrotation 
	JOINT LeftUpLeg
	{
		OFFSET 0.069520 -0.091406 -0.006815
		CHANNELS 3 Zrotation Yrotation Xrotation
		JOINT LeftLeg
		{
			OFFSET 0.034277 -0.375199 -0.004496
			CHANNELS 3 Zrotation Yrotation Xrotation
			JOINT LeftFoot
			{
				OFFSET -0.013596 -0.397961 -0.043693
				CHANNELS 3 Zrotation Yrotation Xrotation
				JOINT LeftToe
				{
					OFFSET 0.026358 -0.055791 0.119288
					CHANNELS 3 Zrotation Yrotation Xrotation
					End Site
					{
						OFFSET 0.000000 0.000000 0.000000
					}
				}
			}
		}
	}
	JOINT RightUpLeg
	{
		OFFSET -0.067670 -0.090522 -0.004320
		CHANNELS 3 Zrotation Yrotation Xrotation
		JOINT RightLeg
		{
			OFFSET -0.038290 -0.382569 -0.008850
			CHANNELS 3 Zrotation Yrotation Xrotation
			JOINT RightFoot
			{
				OFFSET 0.015774 -0.398415 -0.042312
				CHANNELS 3 Zrotation Yrotation Xrotation
				JOINT RightToe
				{
					OFFSET -0.025372 -0.048144 0.123348
					CHANNELS 3 Zrotation Yrotation Xrotation
					End Site
					{
						OFFSET 0.000000 0.000000 0.000000
					}
				}
			}
		}
	}
	JOINT Spine
	{
		OFFSET -0.002533 0.108963 -0.026696
		CHANNELS 3 Zrotation Yrotation Xrotation
		JOINT Spine1
		{
			OFFSET 0.005487 0.135180 0.001092
			CHANNELS 3 Zrotation Yrotation Xrotation
			JOINT Spine2
			{
				OFFSET 0.001457 0.052922 0.025425
				CHANNELS 3 Zrotation Yrotation Xrotation
				JOINT Neck
				{
					OFFSET -0.002778 0.213870 -0.042857
					CHANNELS 3 Zrotation Yrotation Xrotation
					JOINT Head
					{
						OFFSET 0.005152 0.064970 0.051349
						CHANNELS 3 Zrotation Yrotation Xrotation
						End Site
						{
							OFFSET 0.000000 0.000000 0.000000
						}
					}
				}
				JOINT LeftShoulder
				{
					OFFSET 0.078845 0.121749 -0.034090
					CHANNELS 3 Zrotation Yrotation Xrotation
					JOINT LeftArm
					{
						OFFSET 0.090977 0.030469 -0.008868
						CHANNELS 3 Zrotation Yrotation Xrotation
						JOINT LeftForeArm
						{
							OFFSET 0.259612 -0.012772 -0.027456
							CHANNELS 3 Zrotation Yrotation Xrotation
							JOINT LeftHand
							{
								OFFSET 0.249234 0.008986 -0.001171
								CHANNELS 3 Zrotation Yrotation Xrotation
								End Site
								{
									OFFSET 0.000000 0.000000 0.000000
								}
							}
						}
					}
				}
				JOINT RightShoulder
				{
					OFFSET -0.081759 0.118833 -0.038615
					CHANNELS 3 Zrotation Yrotation Xrotation
					JOINT RightArm
					{
						OFFSET -0.096012 0.032551 -0.009143
						CHANNELS 3 Zrotation Yrotation Xrotation
						JOINT RightForeArm
						{
							OFFSET -0.253742 -0.013329 -0.021401
							CHANNELS 3 Zrotation Yrotation Xrotation
							JOINT RightHand
							{
								OFFSET -0.255298 0.007772 -0.005559
								CHANNELS 3 Zrotation Yrotation Xrotation
								End Site
								{
									OFFSET 0.000000 0.000000 0.000000
								}
							}
						}
					}
				}
			}
		}
	}
}
MOTION
Frames: 7
Frame Time: 0.050000
0.009656 0.952211 -0.045737 0.399196 -4.507164 12.013870 4.047337 -0.683853 -10.214067 -0.137722 0.099514 -2.603584 2.784848 8.677011 12.363700 0.000000 0.000000 0.000000 -3.517198 0.998791 -10.985071 -5.700482 -0.137170 -7.712848 0.136099 -7.383132 18.144142 0.000000 0.000000 0.000000 2.942269 0.125786 -3.884632 0.252730 -0.021145 -4.880845 -6.707101 4.046708 1.850116 11.352161 -5.791270 -13.597529 0.000000 0.000000 0.000000 -12.218340 -3.268943 -0.208873 -51.699288 -18.433718 2.163705 -112.302288 -75.226917 101.008685 0.000000 0.000000 0.000000 14.621204 -5.340092 -3.496716 75.736739 19.949785 7.498521 -173.101802 63.876095 -159.912957 0.000000 0.000000 0.000000 
0.009083 0.952915 -0.045998 0.308906 -4.969395 12.163806 4.297004 -0.654220 -9.991850 -0.182621 0.120252 -3.107350 3.015743 9.068021 12.788201 0.000000 0.000000 0.000000 -3.053358 1.051769 -11.401281 -6.614811 -0.093758 -7.509808 0.532979 -6.894439 18.371388 0.000000 0.000000 0.000000 3.121558 0.129317 -3.961595 0.681351 -0.204999 -4.728484 -7.063976 3.961809 1.446169 11.463369 -5.975532 -13.075300 0.000000 0.000000 0.000000 -11.005697 -3.127424 -0.112299 -50.941406 -20.656974 3.097835 -132.320021 -76.404393 124.879312 0.000000 0.000000 0.000000 13.883814 -4.655733 -3.122501 74.317553 22.945994 9.435700 -174.007098 58.858962 -159.824970 0.000000 0.000000 0.000000 
0.008478 0.953589 -0.046112 0.047931 -5.216935 12.247185 4.211421 -0.652710 -9.934603 0.360982 0.070869 -3.053245 3.147074 9.174886 12.351509 0.000000 0.000000 0.000000 -2.623944 1.074745 -11.465610 -6.887817 -0.083703 -7.478976 0.758750 -6.520573 18.198326 0.000000 0.000000 0.000000 3.289149 0.113030 -3.762479 0.983970 -0.318381 -5.301587 -7.197696 3.716039 1.368016 11.372639 -6.074479 -12.452701 0.000000 0.000000 0.000000 -9.906681 -4.067200 0.460616 -50.553717 -23.171903 4.159432 -154.124481 -77.948637 152.253456 0.000000 0.000000 0.000000 12.684300 -3.758822 -2.616101 73.886605 25.474753 11.155768 -174.493729 54.404244 -159.241218 0.000000 0.000000 0.000000 
0.008097 0.953708 -0.046266 -0.148032 -5.073077 12.083200 4.264262 -0.625070 -9.412587 0.440169 0.095526 -3.851130 3.225353 9.428620 13.021367 0.000000 0.000000 0.000000 -2.233312 1.065653 -11.232552 -7.448047 -0.054095 -7.370945 1.317936 -5.508300 18.031025 0.000000 0.000000 0.000000 3.357353 0.089053 -3.432312 1.495790 -0.533690 -5.009006 -7.369867 3.040727 0.396962 11.083893 -6.025808 -11.740541 0.000000 0.000000 0.000000 -9.038632 -4.620332 0.816626 -51.567513 -25.391036 5.378756 -171.328710 -78.806651 173.625808 0.000000 0.000000 0.000000 11.647722 -2.857319 -2.168701 74.513057 26.867190 12.371728 -175.677845 52.330717 -161.445916 0.000000 0.000000 0.000000 
0.007970 0.953840 -0.046874 -0.231691 -5.258056 11.916690 4.392275 -0.599180 -9.078977 0.666944 0.080524 -3.932672 3.205406 9.380093 13.066232 0.000000 0.000000 0.000000 -2.433879 1.047124 -11.087559 -7.277769 -0.020301 -6.964576 1.633050 -4.838758 17.560932 0.000000 0.000000 0.000000 3.501643 0.052932 -2.961593 1.488396 -0.511787 -5.734292 -7.430512 2.523955 0.855103 11.068371 -6.029258 -11.956302 0.000000 0.000000 0.000000 -8.816902 -5.711345 1.392845 -52.450581 -28.088583 6.750577 154.668822 -82.624237 -146.976800 0.000000 0.000000 0.000000 11.228456 -2.281687 -1.942364 74.805483 28.197788 13.269493 -174.573811 52.996308 -159.874059 0.000000 0.000000 0.000000 
0.007980 0.953473 -0.048266 -0.183092 -5.052671 12.002124 4.320995 -0.613868 -9.243619 0.624526 0.098277 -4.267793 3.297588 9.551359 13.049644 0.000000 0.000000 0.000000 -2.718785 1.064263 -11.411795 -7.056910 0.015537 -6.513763 1.981848 -3.833436 16.607591 0.000000 0.000000 0.000000 3.599053 0.026493 -2.666557 1.551390 -0.529122 -5.912965 -7.665316 1.642414 0.936781 11.209406 -5.945725 -12.986140 0.000000 0.000000 0.000000 -9.831846 -6.518995 1.790717 -54.424337 -28.989572 7.591107 97.901941 -83.703932 -87.319845 0.000000 0.000000 0.000000 11.343221 -1.377758 -1.638703 76.234707 27.723808 13.142959 -173.907959 56.597238 -160.639405 0.000000 0.000000 0.000000 
0.007993 0.953028 -0.050600 -0.150540 -5.012852 12.168960 4.188953 -0.641135 -9.648760 0.779065 0.070489 -3.892886 3.566036 10.030443 13.325675 0.000000 0.000000 0.000000 -2.966453 1.115668 -12.130480 -6.826804 0.070010 -5.844971 1.906479 -3.727487 16.017385 0.000000 0.000000 0.000000 3.696095 0.015844 -2.585206 1.525724 -0.520575 -5.822138 -7.993591 1.028048 1.157377 11.515601 -5.917433 -14.250944 0.000000 0.000000 0.000000 -11.203813 -7.564717 2.303914 -55.884510 -29.349698 8.067144 41.389615 -78.190930 -30.245458 0.000000 0.000000 0.000000 12.199651 -1.309687 -1.776986 77.321781 26.792899 12.569076 -167.704150 64.833819 -154.160295 0.000000 0.000000 0.000000 
